<?xml version="1.0" standalone="no"?>
<!DOCTYPE svg PUBLIC "-//W3C//DTD SVG 20010904//EN"
 "http://www.w3.org/TR/2001/REC-SVG-20010904/DTD/svg10.dtd">
<svg version="1.0" xmlns="http://www.w3.org/2000/svg"
 width="1200.000000pt" height="628.000000pt" viewBox="0 0 1200.000000 628.000000"
 preserveAspectRatio="xMidYMid meet">
<metadata>
Created by potrace 1.16, written by Peter Selinger 2001-2019
</metadata>
<g transform="translate(0.000000,628.000000) scale(0.100000,-0.100000)"
fill="#000000" stroke="none">
<path d="M5920 5835 c-258 -53 -465 -211 -575 -440 -63 -130 -79 -206 -79
-355 0 -149 16 -225 79 -355 107 -223 317 -386 560 -436 92 -19 131 -20 709
-17 666 4 656 3 795 64 29 13 55 24 57 24 2 0 4 -89 4 -197 l-1 -198 -21 40
c-86 163 -371 295 -486 225 -64 -39 -72 -76 -72 -331 0 -124 -3 -313 -7 -421
l-6 -194 -71 14 c-101 20 -349 19 -457 -2 -374 -71 -603 -279 -695 -632 -22
-83 -26 -121 -27 -234 0 -169 18 -257 112 -558 135 -426 133 -516 -9 -756 -34
-57 -89 -139 -121 -182 -63 -84 -67 -94 -44 -94 37 0 236 295 286 425 19 50
23 79 23 175 0 129 -11 179 -95 440 -130 402 -146 588 -73 822 109 346 353
529 761 569 305 30 603 -55 989 -282 110 -65 326 -210 321 -216 -2 -2 -26 1
-53 8 -67 15 -228 15 -295 -1 -107 -24 -197 -77 -295 -175 -191 -188 -324
-448 -339 -660 -5 -69 -1 -140 20 -300 37 -300 42 -395 21 -488 -36 -161 -156
-350 -293 -460 -128 -104 -251 -160 -483 -221 -73 -20 -134 -37 -136 -38 -1
-2 1 -9 5 -16 6 -10 23 -10 85 3 136 28 388 113 402 136 3 5 14 9 25 9 11 0
317 -119 681 -265 636 -255 663 -265 727 -265 l66 1 -45 18 c-25 10 -278 111
-562 226 -285 114 -518 211 -518 217 0 10 224 560 239 586 5 9 19 -5 46 -43
51 -75 196 -210 298 -278 160 -107 365 -193 542 -228 94 -19 527 -19 645 -1
111 17 229 48 302 77 l58 23 -14 -31 c-8 -18 -55 -120 -106 -227 -171 -362
-162 -340 -137 -340 19 0 41 42 167 311 l145 311 78 54 79 54 460 0 c508 0
519 1 578 60 57 57 60 79 60 464 l0 346 163 0 c116 0 178 4 214 15 211 63 274
337 113 494 -34 33 -39 41 -23 41 42 0 122 31 166 65 152 116 140 375 -22 475
-39 23 -52 40 -32 40 4 0 29 16 54 35 30 23 55 55 76 96 75 151 16 326 -135
400 -48 23 -55 24 -312 24 l-263 0 3 133 3 133 322 119 c178 65 336 128 352
140 123 87 162 240 96 375 -50 103 -143 159 -260 158 -62 0 -95 -10 -289 -82
-121 -44 -221 -81 -223 -81 -2 0 -3 277 -3 616 0 458 -3 627 -12 658 -16 52
-72 108 -124 124 -32 9 -320 12 -1226 12 l-1185 0 -24 26 c-76 82 -236 173
-369 210 -59 17 -119 18 -685 20 -485 2 -634 0 -685 -11z m1365 -48 c33 -9
103 -38 155 -64 81 -40 109 -60 190 -142 81 -81 103 -111 143 -191 66 -133 82
-199 82 -350 0 -100 -5 -141 -23 -203 -28 -99 -80 -201 -135 -270 l-44 -53 22
-62 c13 -35 18 -62 12 -62 -6 0 -39 5 -75 11 l-64 11 -101 -51 c-177 -89 -143
-86 -867 -86 -634 0 -635 0 -715 23 -136 40 -227 95 -335 202 -82 81 -103 109
-143 190 -66 133 -82 199 -82 350 0 148 22 239 88 365 57 109 201 255 304 308
185 96 182 96 908 93 553 -1 626 -4 680 -19z m2837 -269 c73 -55 68 25 68
-1167 l0 -1070 -47 -21 c-26 -11 -55 -28 -65 -37 -17 -15 -18 22 -18 925 l0
942 -1079 0 -1079 0 -6 48 c-19 130 -71 265 -142 365 l-34 47 1183 -2 1184 -3
35 -27z m-349 -476 c-6 -4 -41 -7 -77 -6 l-66 0 21 -22 21 -23 -26 -26 c-29
-29 -32 -37 -12 -29 8 3 16 2 19 -3 3 -4 -5 -9 -18 -9 -23 -2 -23 1 -21 57 3
58 3 59 -23 57 -14 -1 -32 -6 -38 -11 -9 -6 -19 -5 -30 4 -11 10 -14 10 -9 1
8 -13 -19 -13 -42 2 -7 4 -24 5 -38 2 -22 -6 -24 -11 -22 -49 3 -41 4 -43 31
-39 15 2 33 0 40 -6 8 -7 17 -6 30 3 12 9 14 14 6 17 -19 6 -3 37 23 47 29 11
77 23 60 15 -6 -3 -9 -11 -6 -16 4 -7 2 -8 -5 -4 -18 12 -24 -21 -7 -45 14
-20 14 -24 -2 -35 -15 -12 -12 -13 20 -14 65 0 92 -21 112 -83 17 -52 -56
-122 -116 -110 -15 3 -36 2 -45 -3 -14 -6 -9 -9 22 -14 22 -4 -362 -8 -854 -9
-788 -1 -892 1 -887 14 16 42 55 186 62 225 4 25 6 62 5 83 l-3 37 944 0 c519
0 938 -4 931 -8z m247 -768 l0 -366 -52 42 c-222 178 -472 354 -569 399 -157
75 -275 25 -462 -194 -74 -87 -121 -115 -194 -115 -63 0 -101 17 -161 72 -24
22 -68 51 -99 65 -50 23 -64 25 -137 20 -101 -6 -193 -39 -346 -122 -63 -34
-161 -86 -217 -114 l-103 -51 0 219 0 218 40 -7 c22 -4 40 -5 40 -1 0 3 -13
41 -29 84 l-30 79 51 69 50 69 1109 0 1109 0 0 -366z m-2399 86 c18 0 19 -23
19 -735 0 -404 -2 -735 -5 -735 -3 0 -32 17 -65 37 l-60 38 0 692 c0 648 1
693 18 703 9 5 30 8 46 5 16 -3 37 -5 47 -5z m1775 -55 c128 -66 624 -434 624
-462 0 -11 -214 -13 -1170 -13 -1138 0 -1170 1 -1170 19 0 13 16 25 53 41 28
12 135 66 237 120 199 106 277 137 369 146 81 9 144 -14 217 -78 73 -64 112
-80 191 -80 82 1 148 35 203 107 65 84 174 183 232 210 77 36 130 33 214 -10z
m1420 -10 c60 -18 127 -73 155 -126 57 -112 18 -265 -84 -328 -19 -12 -175
-72 -346 -135 l-311 -114 0 272 0 271 133 49 c236 88 351 126 378 126 14 0 48
-7 75 -15z m-3685 -141 c81 -24 146 -60 201 -112 57 -54 90 -105 118 -187 19
-54 20 -84 20 -460 l0 -403 -172 87 c-95 48 -219 102 -275 121 l-103 35 6 425
c5 328 10 431 20 452 30 59 85 72 185 42z m2889 -673 l0 -309 -25 -55 c-18
-38 -26 -73 -26 -115 -1 -59 23 -156 42 -167 5 -4 9 -53 9 -109 0 -90 -3 -111
-26 -159 -38 -83 -33 -215 10 -272 12 -15 15 -49 16 -131 0 -92 -4 -120 -21
-159 -26 -59 -28 -152 -3 -215 9 -25 19 -66 21 -92 l5 -48 -641 0 c-353 0
-641 2 -641 4 0 2 20 16 44 30 24 14 80 52 124 85 351 260 597 660 696 1131
13 62 36 223 36 252 0 5 14 8 30 8 34 0 70 31 70 60 0 11 -9 29 -20 40 -20 20
-33 20 -840 20 -807 0 -820 0 -840 -20 -11 -11 -20 -29 -20 -40 0 -26 34 -60
60 -60 18 0 20 -7 20 -54 0 -75 -32 -172 -82 -246 -45 -69 -133 -144 -152
-132 -7 4 -51 34 -99 67 l-86 60 -1 468 0 467 1170 0 1170 0 0 -309z m741
-246 c145 -50 212 -217 142 -356 -31 -60 -92 -112 -151 -129 -53 -14 -524 -13
-574 2 -51 15 -121 77 -147 131 -47 96 -15 243 66 304 72 55 115 62 379 63
190 0 250 -3 285 -15z m-1066 -15 c0 -13 -98 -15 -809 -18 -483 -1 -814 2
-819 7 -30 30 13 31 816 29 714 -3 812 -5 812 -18z m-100 -112 c-41 -349 -138
-619 -323 -898 -56 -86 -109 -148 -206 -245 -249 -248 -523 -399 -901 -495
-208 -53 -332 -66 -483 -51 -108 11 -118 14 -164 47 -113 84 -178 206 -178
336 0 83 17 141 54 183 l31 36 126 -85 c69 -47 197 -139 285 -204 87 -66 164
-118 170 -115 16 6 98 183 123 266 59 194 72 398 31 502 -41 105 -119 212
-202 274 l-43 33 71 72 c99 100 142 193 159 339 l6 57 725 0 725 0 -6 -52z
m-1841 -418 c129 -33 191 -66 252 -134 65 -73 120 -180 135 -259 17 -97 -18
-318 -74 -468 -22 -57 -63 -147 -73 -158 -2 -2 -79 53 -171 121 -92 69 -208
153 -258 187 -49 34 -90 67 -90 74 0 6 39 32 87 57 52 26 88 51 88 60 -1 17
-101 98 -258 208 -59 41 -133 95 -166 121 l-58 46 43 37 c56 48 141 94 210
112 81 22 240 20 333 -4z m3007 -5 c145 -50 212 -217 142 -356 -31 -60 -92
-112 -151 -129 -53 -14 -524 -13 -574 2 -51 15 -121 77 -147 131 -15 31 -21
63 -21 109 0 120 71 213 187 244 74 20 505 19 564 -1z m-3508 -258 c61 -46
163 -121 225 -167 l113 -83 -68 -36 c-38 -20 -95 -62 -130 -97 -78 -77 -98
-134 -91 -263 6 -108 33 -178 101 -261 l50 -63 -38 7 c-150 29 -359 116 -496
208 l-77 51 -5 71 c-14 186 38 351 179 566 41 63 111 150 120 150 2 0 55 -37
117 -83z m3348 -292 c188 -64 230 -323 71 -442 -61 -46 -97 -53 -281 -53 -188
0 -224 8 -286 62 -60 53 -87 112 -86 190 0 118 73 213 188 244 71 19 337 18
394 -1z m-425 -525 c12 0 14 -45 14 -271 0 -303 -3 -317 -68 -367 l-35 -27
-807 -3 -807 -2 -6 127 c-4 71 -7 201 -7 291 0 146 2 163 18 169 9 3 55 23
101 44 l84 39 698 0 699 0 0 34 0 35 51 -35 c28 -19 57 -34 65 -34z m-3285
-78 c21 -141 57 -284 93 -365 l25 -58 -130 -317 c-72 -174 -132 -318 -133
-319 -2 -3 -107 38 -215 83 l-33 14 48 39 c64 50 162 154 203 214 83 122 141
295 141 422 0 39 -9 143 -20 231 -23 188 -23 187 -8 182 7 -3 19 -55 29 -126z
m261 -30 c249 -99 560 -148 771 -122 110 13 293 56 407 94 41 14 78 26 83 26
4 0 8 -91 8 -202 1 -112 5 -297 8 -413 5 -177 8 -210 21 -210 9 0 16 11 18 28
l3 27 297 0 297 -1 -40 -25 c-122 -77 -267 -131 -430 -160 -80 -15 -153 -18
-365 -18 -246 0 -271 1 -355 23 -283 74 -506 200 -689 391 -103 108 -156 197
-201 340 -22 73 -65 285 -65 325 0 9 23 0 65 -24 36 -21 111 -57 167 -79z
m3016 -640 c-17 -35 -34 -53 -68 -69 l-44 -23 -793 0 -793 0 0 65 0 65 803 0
c754 0 804 2 842 19 22 10 47 26 55 36 14 17 15 16 18 -14 2 -20 -6 -51 -20
-79z"/>
<path d="M5940 5764 c-147 -31 -256 -90 -367 -196 -214 -206 -280 -524 -167
-802 70 -171 228 -330 400 -400 131 -53 168 -56 766 -56 578 0 632 3 751 45
185 64 357 228 431 411 116 284 46 600 -178 811 -115 108 -235 168 -386 192
-104 17 -1168 13 -1250 -5z m1345 -56 c111 -38 196 -91 279 -173 83 -82 136
-168 173 -280 23 -70 27 -96 27 -210 0 -114 -4 -140 -27 -210 -37 -111 -90
-197 -173 -279 -82 -83 -167 -136 -279 -174 l-80 -27 -625 0 -625 0 -80 27
c-112 38 -197 91 -279 174 -83 82 -136 168 -173 279 -23 70 -27 96 -27 210 0
114 4 140 27 210 81 243 271 414 522 470 47 11 188 13 660 12 l600 -2 80 -27z"/>
<path d="M8345 5345 c-16 -15 -25 -36 -25 -55 0 -19 9 -40 25 -55 15 -16 36
-25 55 -25 19 0 40 9 55 25 16 15 25 36 25 55 0 19 -9 40 -25 55 -15 16 -36
25 -55 25 -19 0 -40 -9 -55 -25z"/>
<path d="M8565 5345 c-16 -15 -25 -36 -25 -55 0 -19 9 -40 25 -55 l24 -25 356
0 356 0 24 25 c16 15 25 36 25 55 0 19 -9 40 -25 55 l-24 25 -356 0 -356 0
-24 -25z m739 -37 c8 -13 8 -23 0 -35 -10 -17 -40 -18 -354 -21 -353 -2 -370
-1 -370 37 0 40 11 41 369 39 315 -3 345 -4 355 -20z"/>
<path d="M9672 4590 c-47 -29 -72 -76 -72 -136 0 -157 192 -221 288 -96 35 47
38 135 6 179 -54 72 -151 96 -222 53z m157 -46 c90 -76 41 -209 -77 -209 -38
0 -48 5 -78 37 -38 43 -45 88 -19 138 32 62 121 79 174 34z"/>
<path d="M7940 3640 c-11 -11 -20 -29 -20 -40 0 -11 9 -29 20 -40 20 -20 33
-20 890 -20 857 0 870 0 890 20 11 11 20 29 20 40 0 11 -9 29 -20 40 -20 20
-33 20 -890 20 -857 0 -870 0 -890 -20z m1755 -40 c0 -13 -103 -15 -859 -18
-513 -1 -864 2 -869 7 -30 30 14 31 866 29 758 -3 862 -5 862 -18z"/>
<path d="M7930 3450 c-11 -11 -20 -29 -20 -40 0 -11 9 -29 20 -40 20 -20 33
-20 890 -20 857 0 870 0 890 20 11 11 20 29 20 40 0 11 -9 29 -20 40 -20 20
-33 20 -890 20 -857 0 -870 0 -890 -20z m1755 -40 c0 -13 -103 -15 -859 -18
-513 -1 -864 2 -869 7 -30 30 14 31 866 29 758 -3 862 -5 862 -18z"/>
<path d="M8760 1531 c-46 -15 -85 -39 -116 -73 -54 -57 -69 -95 -69 -178 0
-83 15 -121 69 -178 53 -57 101 -77 186 -77 85 0 133 20 186 77 54 57 69 95
69 178 0 54 -6 85 -19 110 -26 49 -74 98 -121 122 -43 22 -144 33 -185 19z
m167 -56 c105 -52 151 -177 104 -280 -77 -171 -307 -180 -394 -15 -24 46 -28
64 -25 112 11 159 173 253 315 183z"/>
<path d="M8664 845 c-4 -8 -4 -22 0 -30 5 -13 31 -15 173 -13 l168 3 0 25 0
25 -168 3 c-142 2 -168 0 -173 -13z"/>
<path d="M2516 4977 c-19 -19 -25 -39 -31 -111 -6 -82 -5 -91 15 -119 l23 -30
-15 -183 -14 -183 -30 -22 c-59 -44 -184 -180 -234 -253 -373 -553 -239 -1285
305 -1663 72 -50 77 -55 45 -49 -19 3 -91 8 -160 11 -69 4 -131 8 -138 11 -32
10 -199 -17 -249 -41 -71 -35 -85 -61 -97 -180 -8 -73 -17 -110 -34 -136 -59
-96 -85 -250 -63 -381 11 -66 11 -81 -8 -153 -42 -165 -55 -264 -55 -445 -1
-262 34 -416 124 -554 27 -42 44 -76 37 -76 -22 0 -1261 -121 -1284 -126 -23
-4 -23 -7 -23 -149 l0 -145 25 0 25 0 0 105 c0 58 2 105 5 105 3 0 69 -47 147
-105 135 -100 144 -105 191 -105 l50 0 -119 88 c-66 48 -141 103 -168 122
l-48 35 28 7 c16 5 302 35 636 67 l606 60 56 -30 c71 -39 168 -59 284 -59 90
0 92 0 82 -21 -28 -52 29 -135 124 -180 191 -91 470 -73 536 33 41 65 4 141
-91 192 -30 16 -55 30 -57 32 -4 3 68 98 78 102 4 1 235 27 513 56 345 36 512
57 523 67 11 9 147 26 425 54 l409 41 42 -43 c23 -24 39 -43 35 -43 -4 0 -292
-38 -640 -85 -347 -47 -753 -101 -902 -121 -148 -19 -280 -39 -292 -44 -20 -8
-23 -17 -23 -69 l0 -58 264 -102 c241 -92 270 -101 332 -101 37 0 207 22 378
50 514 82 1246 198 1486 236 124 19 235 39 248 44 19 8 22 17 22 59 0 27 -5
53 -11 56 -6 4 -114 43 -241 86 -127 43 -233 81 -235 83 -2 2 11 26 29 53 31
48 36 51 88 57 30 4 74 10 98 13 23 3 42 9 42 14 0 6 -8 9 -17 7 -10 -2 -18 3
-18 12 0 16 -13 17 -91 6 l-51 -8 -5 74 c-8 116 -67 205 -168 252 -70 32 -178
29 -253 -7 -65 -33 -74 -32 -204 15 -93 34 -224 112 -308 185 -92 79 -245 277
-245 316 0 8 -7 20 -15 27 -11 9 -15 33 -15 84 0 94 -23 187 -65 263 -19 34
-37 78 -41 97 -9 49 -58 115 -97 130 -18 7 -111 21 -207 30 -96 9 -188 20
-205 23 -27 5 -26 7 31 28 393 148 686 514 748 936 19 126 20 202 5 324 -36
296 -183 563 -423 772 l-60 51 12 154 c10 131 15 155 32 168 28 22 39 59 42
149 2 64 -1 84 -14 97 -20 20 -83 33 -165 34 -84 0 -98 -17 -106 -137 -6 -78
-4 -91 13 -115 21 -29 24 -66 14 -179 l-7 -67 -61 26 c-293 119 -627 120 -908
2 l-68 -28 1 26 c0 15 4 67 8 116 7 75 11 91 31 106 26 19 39 75 40 167 0 80
-17 98 -102 107 -104 10 -127 8 -152 -17z m140 -311 c-3 -22 -8 -82 -12 -132
l-6 -91 -44 -26 -44 -27 0 33 c0 42 20 269 24 282 2 6 22 9 46 7 l42 -4 -6
-42z m1208 14 c17 0 18 -6 12 -70 -3 -38 -9 -101 -12 -140 l-7 -70 -39 23 -40
22 7 115 c4 63 9 119 12 123 3 5 15 6 27 3 11 -3 29 -6 40 -6z m-329 -430
c317 -86 563 -326 661 -645 26 -83 28 -104 28 -260 1 -148 -2 -180 -22 -250
-75 -261 -253 -476 -495 -595 -172 -85 -352 -115 -532 -90 -388 54 -688 321
-791 705 -28 105 -26 359 4 470 65 237 240 459 455 579 69 39 216 91 298 105
89 16 302 6 394 -19z m-1207 -1918 c10 -7 9 -14 -6 -33 -29 -37 -42 -86 -42
-155 0 -35 -4 -64 -8 -64 -5 0 -17 9 -28 21 -52 58 -156 76 -228 39 l-38 -19
6 62 c11 95 52 128 180 147 71 10 149 11 164 2z m286 -22 c4 -5 5 -337 1 -744
-7 -691 -9 -736 -25 -741 -26 -8 -99 -91 -116 -130 -18 -43 -40 -55 -116 -61
l-61 -4 6 52 c4 29 7 217 8 418 l1 365 31 90 c27 80 31 102 30 200 0 91 -4
123 -26 185 -22 65 -25 88 -22 170 5 132 25 177 90 206 32 15 181 10 199 -6z
m1405 -149 c61 -43 65 -56 73 -264 16 -433 28 -1163 19 -1193 -22 -76 -53 -99
-149 -110 l-59 -6 -6 338 c-4 187 -10 547 -14 801 l-6 462 59 -6 c32 -3 70
-13 83 -22z m-786 -66 c232 -19 443 -36 468 -37 l46 -3 6 -200 c4 -110 7 -239
7 -287 l0 -88 -198 0 c-109 0 -328 3 -485 7 l-287 6 0 319 c0 221 3 318 11
318 6 0 200 -16 432 -35z m-1047 -11 c178 -116 190 -504 20 -650 -49 -42 -69
-44 -60 -6 13 62 38 127 59 158 78 115 45 323 -59 377 -32 17 -43 18 -76 8
-53 -16 -79 -51 -136 -182 l-49 -112 -3 71 c-6 146 62 302 150 345 50 25 107
21 154 -9z m-44 -211 c14 -16 31 -38 37 -51 13 -24 19 -118 8 -128 -3 -3 -26
6 -50 21 -28 16 -69 29 -105 33 l-60 7 29 65 c16 35 35 68 42 72 27 17 73 8
99 -19z m-55 -188 c70 -30 74 -37 50 -109 l-20 -63 -50 25 c-36 19 -66 26
-107 27 l-57 0 8 30 c14 49 32 90 43 97 19 13 95 9 133 -7z m-77 -175 c19 -5
48 -20 63 -32 28 -23 28 -24 16 -78 -6 -30 -13 -56 -14 -58 -2 -2 -21 6 -44
17 -28 15 -59 21 -106 21 -73 0 -72 -2 -53 79 7 30 18 52 27 54 30 8 76 7 111
-3z m2299 -95 l32 -45 -28 0 c-37 -1 -111 -35 -144 -66 l-26 -25 -7 61 c-4 33
-4 65 0 71 10 17 85 49 115 49 19 0 34 -11 58 -45z m-2046 -388 c-3 -213 -10
-387 -14 -387 -21 0 -78 64 -97 107 -31 73 -46 223 -39 402 3 86 8 164 12 174
4 9 29 27 55 38 27 12 56 29 66 40 9 11 19 18 20 16 2 -1 0 -177 -3 -390z
m-221 265 c23 -24 26 -33 21 -78 l-5 -52 -35 24 c-41 28 -85 37 -148 32 l-46
-3 7 50 c3 27 8 52 10 54 2 2 21 7 41 11 59 9 124 -6 155 -38z m2352 22 c4
-11 -2 -22 -16 -32 -46 -31 -96 -92 -113 -137 l-18 -46 -49 48 c-26 26 -48 52
-48 58 0 14 68 79 99 95 20 10 82 24 127 29 7 0 15 -6 18 -15z m101 -90 c38
-34 39 -36 20 -46 -38 -21 -102 -95 -121 -141 -10 -26 -21 -47 -24 -47 -3 0
-22 14 -43 31 -34 28 -37 35 -32 63 11 50 53 115 97 146 23 17 46 30 52 30 6
-1 29 -17 51 -36z m-2522 -65 c40 -20 87 -72 87 -95 0 -22 -1 -23 -35 -8 -54
22 -97 18 -187 -21 -16 -6 -18 0 -18 58 0 43 4 67 13 70 23 10 118 7 140 -4z
m2640 -20 c12 -7 23 -13 25 -14 2 -2 -12 -24 -31 -49 -40 -51 -55 -92 -59
-153 -2 -24 -7 -43 -11 -43 -4 0 -33 16 -63 35 -51 33 -55 39 -49 63 12 50 50
106 93 139 47 36 62 39 95 22z m-192 -248 c50 -33 125 -74 166 -91 79 -33 211
-70 250 -70 12 0 23 -4 23 -10 0 -5 -8 -10 -17 -10 -10 0 -173 -16 -363 -35
-190 -19 -349 -35 -353 -35 -4 0 -2 10 5 23 10 16 12 78 11 246 l-3 223 95
-90 c52 -50 135 -118 186 -151z m323 180 l45 -20 -31 -33 c-37 -39 -65 -98
-74 -156 -4 -23 -8 -42 -10 -42 -2 0 -21 7 -41 15 -32 13 -38 20 -40 48 -4 52
24 133 61 171 18 20 36 36 39 36 3 0 26 -9 51 -19z m164 -56 c2 -2 -5 -16 -15
-32 -29 -42 -43 -89 -43 -151 l0 -54 -46 7 c-76 11 -77 12 -71 66 7 60 27 98
74 144 31 30 43 36 67 31 16 -4 31 -8 34 -11z m-2881 -17 c21 -15 33 -31 33
-46 0 -20 -4 -22 -37 -16 -46 7 -113 -15 -156 -52 l-32 -27 -7 39 c-13 74 -12
77 45 101 68 29 112 29 154 1z m1680 -28 c39 -23 59 -80 49 -136 -10 -48 -64
-104 -101 -104 -33 0 -532 -38 -596 -45 -42 -5 -47 -3 -57 21 -26 55 -74 102
-133 129 -32 14 -59 31 -59 37 0 18 70 78 93 79 12 0 175 9 362 18 187 10 356
19 375 20 19 0 49 -8 67 -19z m-1635 -103 c4 -6 8 -21 8 -32 0 -17 -7 -20 -48
-21 -53 -1 -103 -23 -148 -66 l-31 -29 -6 36 c-5 33 -2 41 31 72 52 49 89 64
141 58 25 -3 48 -11 53 -18z m5 -103 c29 -8 41 -55 17 -69 -41 -23 -112 -98
-129 -135 -10 -22 -22 -37 -27 -34 -13 8 -58 101 -58 120 0 29 51 85 94 105
43 20 67 23 103 13z m89 -125 l23 -22 -26 -44 c-20 -34 -27 -63 -31 -119 -3
-45 -9 -74 -16 -74 -34 0 -126 75 -126 102 0 45 68 135 125 166 26 15 25 15
51 -9z m287 -97 c4 -54 25 -107 63 -158 15 -21 14 -22 -51 -33 -36 -7 -71 -9
-76 -5 -39 24 -65 179 -36 216 10 14 54 32 88 37 3 1 9 -25 12 -57z m-167 38
c8 0 10 -22 7 -67 -4 -53 0 -80 16 -122 l20 -54 -66 6 c-36 4 -68 9 -71 12 -9
9 -15 103 -8 137 3 18 15 48 27 67 16 26 25 32 42 27 12 -3 27 -6 33 -6z
m3219 -74 c160 -53 185 -64 160 -69 -28 -6 -1150 -177 -1739 -266 l-258 -38
-210 80 c-114 44 -207 81 -205 84 4 3 137 22 1199 164 473 64 617 80 655 74
45 -8 40 -10 -92 -27 -77 -10 -150 -21 -162 -24 -41 -8 -24 -31 42 -58 l65
-26 227 36 c126 20 232 39 237 44 31 30 -81 64 -188 57 -61 -4 -70 -4 -39 3
24 5 51 14 60 19 30 18 53 13 248 -53z m285 -121 c0 -8 -4 -15 -8 -15 -8 0
-1982 -313 -2049 -325 -34 -6 -42 5 -25 32 5 8 234 47 612 104 333 50 790 119
1015 154 469 72 455 70 455 50z m-3150 -85 c30 -11 74 -19 98 -20 23 0 42 -2
42 -4 0 -2 -9 -23 -19 -47 -11 -24 -23 -66 -26 -93 l-8 -48 -41 6 c-97 16
-216 95 -216 145 0 21 35 56 70 70 34 13 37 13 100 -9z m343 -130 c31 -12 57
-25 57 -30 0 -22 -97 -54 -177 -58 -82 -4 -83 -4 -83 19 0 13 5 41 11 63 l11
39 62 -6 c34 -3 88 -15 119 -27z"/>
<path d="M2845 3535 l-25 -24 0 -260 0 -260 24 -28 c21 -24 32 -28 75 -28 42
0 55 5 78 28 l28 27 0 259 0 259 -24 26 c-20 22 -33 26 -78 26 -44 0 -58 -5
-78 -25z"/>
<path d="M3872 3553 c-36 -14 -42 -56 -42 -313 l0 -251 24 -24 c32 -32 69 -40
117 -26 66 20 69 35 69 311 0 245 -3 270 -39 297 -16 12 -104 16 -129 6z"/>
<path d="M4395 380 c-110 -16 -201 -29 -202 -29 -2 -1 -3 -7 -3 -15 0 -8 29
-25 65 -40 l65 -26 227 36 c126 19 232 39 237 44 14 14 -1 27 -51 44 -61 21
-99 19 -338 -14z"/>
<path d="M3645 320 c-110 -16 -201 -29 -203 -29 -2 -1 -2 -8 0 -17 2 -9 30
-26 66 -40 l64 -24 226 36 c125 20 231 40 237 45 12 12 0 22 -53 42 -56 22
-98 20 -337 -13z"/>
</g>
</svg>
